<?xml version="1.0" encoding="UTF-8" ?>
<svg version="1.1" width="12" height="12" xmlns="http://www.w3.org/2000/svg" shape-rendering="crispEdges">
<rect x="0" y="0" width="1" height="1" fill="#4D6991" />
<rect x="1" y="0" width="1" height="1" fill="#4D6991" />
<rect x="2" y="0" width="1" height="1" fill="#4D6991" />
<rect x="3" y="0" width="1" height="1" fill="#4D6991" />
<rect x="4" y="0" width="1" height="1" fill="#4D6991" />
<rect x="5" y="0" width="1" height="1" fill="#4D6991" />
<rect x="6" y="0" width="1" height="1" fill="#4D6991" />
<rect x="7" y="0" width="1" height="1" fill="#4D6991" />
<rect x="8" y="0" width="1" height="1" fill="#4D6991" />
<rect x="9" y="0" width="1" height="1" fill="#4D6991" />
<rect x="10" y="0" width="1" height="1" fill="#4D6991" />
<rect x="11" y="0" width="1" height="1" fill="#4D6991" />
<rect x="0" y="1" width="1" height="1" fill="#4D6991" />
<rect x="1" y="1" width="1" height="1" fill="#A6D7F2" />
<rect x="2" y="1" width="1" height="1" fill="#A6D7F2" />
<rect x="3" y="1" width="1" height="1" fill="#A6D7F2" />
<rect x="4" y="1" width="1" height="1" fill="#A6D7F2" />
<rect x="5" y="1" width="1" height="1" fill="#A6D7F2" />
<rect x="6" y="1" width="1" height="1" fill="#A6D7F2" />
<rect x="7" y="1" width="1" height="1" fill="#A6D7F2" />
<rect x="8" y="1" width="1" height="1" fill="#A6D7F2" />
<rect x="9" y="1" width="1" height="1" fill="#A6D7F2" />
<rect x="10" y="1" width="1" height="1" fill="#A6D7F2" />
<rect x="11" y="1" width="1" height="1" fill="#4D6991" />
<rect x="0" y="2" width="1" height="1" fill="#4D6991" />
<rect x="1" y="2" width="1" height="1" fill="#A6D7F2" />
<rect x="2" y="2" width="1" height="1" fill="#2F200D" />
<rect x="3" y="2" width="1" height="1" fill="#2B1E0D" />
<rect x="4" y="2" width="1" height="1" fill="#2F1F0F" />
<rect x="5" y="2" width="1" height="1" fill="#281C0B" />
<rect x="6" y="2" width="1" height="1" fill="#241808" />
<rect x="7" y="2" width="1" height="1" fill="#261A0A" />
<rect x="8" y="2" width="1" height="1" fill="#2B1E0D" />
<rect x="9" y="2" width="1" height="1" fill="#2A1D0D" />
<rect x="10" y="2" width="1" height="1" fill="#A6D7F2" />
<rect x="11" y="2" width="1" height="1" fill="#4D6991" />
<rect x="0" y="3" width="1" height="1" fill="#4D6991" />
<rect x="1" y="3" width="1" height="1" fill="#A6D7F2" />
<rect x="2" y="3" width="1" height="1" fill="#2B1E0D" />
<rect x="3" y="3" width="1" height="1" fill="#2B1E0D" />
<rect x="4" y="3" width="1" height="1" fill="#2B1E0D" />
<rect x="5" y="3" width="1" height="1" fill="#332411" />
<rect x="6" y="3" width="1" height="1" fill="#422A12" />
<rect x="7" y="3" width="1" height="1" fill="#3F2A15" />
<rect x="8" y="3" width="1" height="1" fill="#2C1E0E" />
<rect x="9" y="3" width="1" height="1" fill="#281C0B" />
<rect x="10" y="3" width="1" height="1" fill="#A6D7F2" />
<rect x="11" y="3" width="1" height="1" fill="#4D6991" />
<rect x="0" y="4" width="1" height="1" fill="#4D6991" />
<rect x="1" y="4" width="1" height="1" fill="#A6D7F2" />
<rect x="2" y="4" width="1" height="1" fill="#2B1E0D" />
<rect x="3" y="4" width="1" height="1" fill="#B6896C" />
<rect x="4" y="4" width="1" height="1" fill="#BD8E72" />
<rect x="5" y="4" width="1" height="1" fill="#C69680" />
<rect x="6" y="4" width="1" height="1" fill="#BD8B72" />
<rect x="7" y="4" width="1" height="1" fill="#BD8E74" />
<rect x="8" y="4" width="1" height="1" fill="#AC765A" />
<rect x="9" y="4" width="1" height="1" fill="#342512" />
<rect x="10" y="4" width="1" height="1" fill="#A6D7F2" />
<rect x="11" y="4" width="1" height="1" fill="#4D6991" />
<rect x="0" y="5" width="1" height="1" fill="#4D6991" />
<rect x="1" y="5" width="1" height="1" fill="#A6D7F2" />
<rect x="2" y="5" width="1" height="1" fill="#AA7D66" />
<rect x="3" y="5" width="1" height="1" fill="#B4846D" />
<rect x="4" y="5" width="1" height="1" fill="#AA7D66" />
<rect x="5" y="5" width="1" height="1" fill="#AD806D" />
<rect x="6" y="5" width="1" height="1" fill="#9C725C" />
<rect x="7" y="5" width="1" height="1" fill="#BB8972" />
<rect x="8" y="5" width="1" height="1" fill="#9C694C" />
<rect x="9" y="5" width="1" height="1" fill="#9C694C" />
<rect x="10" y="5" width="1" height="1" fill="#A6D7F2" />
<rect x="11" y="5" width="1" height="1" fill="#4D6991" />
<rect x="0" y="6" width="1" height="1" fill="#4D6991" />
<rect x="1" y="6" width="1" height="1" fill="#A6D7F2" />
<rect x="2" y="6" width="1" height="1" fill="#B4846D" />
<rect x="3" y="6" width="1" height="1" fill="#FFFFFF" />
<rect x="4" y="6" width="1" height="1" fill="#523D89" />
<rect x="5" y="6" width="1" height="1" fill="#B57B67" />
<rect x="6" y="6" width="1" height="1" fill="#BB8972" />
<rect x="7" y="6" width="1" height="1" fill="#523D89" />
<rect x="8" y="6" width="1" height="1" fill="#FFFFFF" />
<rect x="9" y="6" width="1" height="1" fill="#AA7D66" />
<rect x="10" y="6" width="1" height="1" fill="#A6D7F2" />
<rect x="11" y="6" width="1" height="1" fill="#4D6991" />
<rect x="0" y="7" width="1" height="1" fill="#4D6991" />
<rect x="1" y="7" width="1" height="1" fill="#A6D7F2" />
<rect x="2" y="7" width="1" height="1" fill="#9C6346" />
<rect x="3" y="7" width="1" height="1" fill="#B37B62" />
<rect x="4" y="7" width="1" height="1" fill="#B78272" />
<rect x="5" y="7" width="1" height="1" fill="#6A4030" />
<rect x="6" y="7" width="1" height="1" fill="#6A4030" />
<rect x="7" y="7" width="1" height="1" fill="#BE886C" />
<rect x="8" y="7" width="1" height="1" fill="#A26A47" />
<rect x="9" y="7" width="1" height="1" fill="#805334" />
<rect x="10" y="7" width="1" height="1" fill="#A6D7F2" />
<rect x="11" y="7" width="1" height="1" fill="#4D6991" />
<rect x="0" y="8" width="1" height="1" fill="#4D6991" />
<rect x="1" y="8" width="1" height="1" fill="#A6D7F2" />
<rect x="2" y="8" width="1" height="1" fill="#905E43" />
<rect x="3" y="8" width="1" height="1" fill="#965F40" />
<rect x="4" y="8" width="1" height="1" fill="#774235" />
<rect x="5" y="8" width="1" height="1" fill="#774235" />
<rect x="6" y="8" width="1" height="1" fill="#774235" />
<rect x="7" y="8" width="1" height="1" fill="#774235" />
<rect x="8" y="8" width="1" height="1" fill="#8F5E3E" />
<rect x="9" y="8" width="1" height="1" fill="#815339" />
<rect x="10" y="8" width="1" height="1" fill="#A6D7F2" />
<rect x="11" y="8" width="1" height="1" fill="#4D6991" />
<rect x="0" y="9" width="1" height="1" fill="#4D6991" />
<rect x="1" y="9" width="1" height="1" fill="#A6D7F2" />
<rect x="2" y="9" width="1" height="1" fill="#72482F" />
<rect x="3" y="9" width="1" height="1" fill="#7A4E33" />
<rect x="4" y="9" width="1" height="1" fill="#815339" />
<rect x="5" y="9" width="1" height="1" fill="#815339" />
<rect x="6" y="9" width="1" height="1" fill="#7A4E33" />
<rect x="7" y="9" width="1" height="1" fill="#83553B" />
<rect x="8" y="9" width="1" height="1" fill="#83553B" />
<rect x="9" y="9" width="1" height="1" fill="#7A4E33" />
<rect x="10" y="9" width="1" height="1" fill="#A6D7F2" />
<rect x="11" y="9" width="1" height="1" fill="#4D6991" />
<rect x="0" y="10" width="1" height="1" fill="#4D6991" />
<rect x="1" y="10" width="1" height="1" fill="#A6D7F2" />
<rect x="2" y="10" width="1" height="1" fill="#A6D7F2" />
<rect x="3" y="10" width="1" height="1" fill="#A6D7F2" />
<rect x="4" y="10" width="1" height="1" fill="#A6D7F2" />
<rect x="5" y="10" width="1" height="1" fill="#A6D7F2" />
<rect x="6" y="10" width="1" height="1" fill="#A6D7F2" />
<rect x="7" y="10" width="1" height="1" fill="#A6D7F2" />
<rect x="8" y="10" width="1" height="1" fill="#A6D7F2" />
<rect x="9" y="10" width="1" height="1" fill="#A6D7F2" />
<rect x="10" y="10" width="1" height="1" fill="#A6D7F2" />
<rect x="11" y="10" width="1" height="1" fill="#4D6991" />
<rect x="0" y="11" width="1" height="1" fill="#4D6991" />
<rect x="1" y="11" width="1" height="1" fill="#4D6991" />
<rect x="2" y="11" width="1" height="1" fill="#4D6991" />
<rect x="3" y="11" width="1" height="1" fill="#4D6991" />
<rect x="4" y="11" width="1" height="1" fill="#4D6991" />
<rect x="5" y="11" width="1" height="1" fill="#4D6991" />
<rect x="6" y="11" width="1" height="1" fill="#4D6991" />
<rect x="7" y="11" width="1" height="1" fill="#4D6991" />
<rect x="8" y="11" width="1" height="1" fill="#4D6991" />
<rect x="9" y="11" width="1" height="1" fill="#4D6991" />
<rect x="10" y="11" width="1" height="1" fill="#4D6991" />
<rect x="11" y="11" width="1" height="1" fill="#4D6991" />
</svg>